<mxfile host="app.diagrams.net" modified="2024-06-22T02:45:57.753Z" agent="Mozilla/5.0 (Windows NT 10.0; Win64; x64) AppleWebKit/537.36 (KHTML, like Gecko) Chrome/126.0.0.0 Safari/537.36" version="24.6.1" etag="JfF0fJ2SNs2lM54sVQfB" type="github">
  <diagram name="第 1 页" id="RFj-z2joLR4Fo9MUn9vy">
    <mxGraphModel>
      <root>
        <mxCell id="0" />
        <mxCell id="1" parent="0" />
      </root>
    </mxGraphModel>
  </diagram>
</mxfile>
